# xmcd CD database file
#
# Track frame offsets:
#	150
#	27160
#	43876
#	56048
#	62680
#	86430
#	99919
#	113359
#	119299
#	127179
#	135373
#	143182
#	153059
#	160035
#	167797
#
# Disc length: 2616 seconds
#
# Revision: 0
# Processed by: cddbd v1.5.2PL0 Copyright (c) Steve Scherf et al.
# Submitted via: CDex 1.70beta2
#
DISCID=bc0a360f
DTITLE=Juan Pablo II - Recitate da Monica Vitti e Alberto Sordi - Splendore dell'acqua [CD2)
DYEAR=2005
DGENRE=New Age
TTITLE0=Il rito
TTITLE1=Resistenza dei pensieri alle parole
TTITLE2=Lo spazio necessario alle gocce della pioggia di primavera
TTITLE3=Cripta
TTITLE4=Storia dell'albero ferito
TTITLE5=Meditazione rinnovata
TTITLE6=Giacobbe
TTITLE7=Pensando patria...
TTITLE8=Operaio in una fabbrica automobilistica
TTITLE9=La Samaritana
TTITLE10=Maddalena
TTITLE11=L'Abisso
TTITLE12=Operaio in una fabbrica d'armi
TTITLE13=Maddalena
TTITLE14=Magnificat
EXTD=YEAR: 2005
EXTT0=
EXTT1=
EXTT2=
EXTT3=
EXTT4=
EXTT5=
EXTT6=
EXTT7=
EXTT8=
EXTT9=
EXTT10=
EXTT11=
EXTT12=
EXTT13=
EXTT14=
PLAYORDER=
